<svg xmlns="http://www.w3.org/2000/svg" id="Layer_1" data-name="Layer 1" viewBox="0 0 506.7092 507"><defs><style>
      .cls-1 {
        fill: #2c6ac6;
      }
    </style></defs><title>inst</title><g><path class="cls-1" d="M508.862,256.41539c0,35.54117-.71492,71.18451.20427,106.72568,1.53195,62.912-37.99231,111.5258-88.34231,133.1773a159.75653,159.75653,0,0,1-63.42263,13.27688c-68.7334.10214-137.56889,1.0213-206.30227-.30638-51.77983-1.02129-94.368-22.67283-124.9048-65.36309-16.03438-22.46857-23.69412-48.001-23.69412-75.67822V148.66841c0-59.74595,29.107-101.51706,80.78469-128.68359,22.46857-11.74493,46.87761-16.7493,72.30793-16.85143,66.69079,0,133.48371-.40852,200.17448.20426,51.77984.40852,94.98075,20.22171,126.84527,61.89068,17.77059,23.2856,26.34949,50.04362,26.34949,79.457Zm-468.77595,0V368.75821c0,16.74929,3.88093,32.47728,12.562,46.67335C75.423,452.709,109.84074,470.88805,152.531,471.603c68.52913,1.0213,137.16039.40851,205.79163.20427a111.64412,111.64412,0,0,0,48.40953-10.72363c41.46472-19.81318,64.64818-51.3713,64.44394-98.75957-.40852-72.51218-.10214-145.02436-.10214-217.53655,0-20.52809-5.82141-39.32-17.97486-55.865C429.60925,57.1601,397.132,41.53423,358.32261,41.12571c-68.427-.817-136.854-.30639-205.281-.20426a120.56814,120.56814,0,0,0-42.38388,8.06826C73.074,62.98149,38.14556,98.42055,39.77964,150.6089,41.00523,185.9458,40.08606,221.1806,40.08606,256.41539Z" transform="translate(-2.40015 -3)"></path><path class="cls-1" d="M256.1928,364.673c-65.87375,0-118.98126-52.49473-119.0834-117.85783-.10213-64.3418,53.41391-117.0408,118.87913-117.0408,65.6695-.10213,118.98126,52.49473,119.08339,117.34718C375.07192,311.87188,321.86227,364.57088,256.1928,364.673Zm0-37.788c44.835,0,81.19322-35.84758,81.09108-79.96767-.10213-43.71157-36.46036-79.457-81.09108-79.457-44.835,0-81.39748,35.6433-81.39748,79.66127C174.89744,291.24167,211.35779,326.98711,256.1928,326.885Z" transform="translate(-2.40015 -3)"></path><path class="cls-1" d="M388.85945,94.029c13.78753,0,25.02181,11.74493,25.02181,26.14524-.10213,14.4003-11.43855,26.04311-25.22608,25.941-13.58326-.10214-24.71543-11.74493-24.71543-25.83886C363.83764,105.876,375.07192,94.029,388.85945,94.029Z" transform="translate(-2.40015 -3)"></path></g></svg>