<svg xmlns="http://www.w3.org/2000/svg" id="&#x421;&#x43B;&#x43E;&#x439;_1" data-name="&#x421;&#x43B;&#x43E;&#x439; 1" viewBox="0 0 443.8138 512"><defs><style>
      .cls-1 {
        fill: #2c6ac6;
      }
    </style></defs><title>ДОКУМЕНТ</title><g id="Layer_2" data-name="Layer 2"><g><path class="cls-1" d="M466.7662,511.69827a11.39646,11.39646,0,0,0,11.31408-11.31408V134.26043a11.18654,11.18654,0,0,0-3.168-7.84442L369.46508,4.07305h0l-.15086-.15085-.15087-.15085a6.969,6.969,0,0,0-1.056-1.056l-.15086-.15085c-.45255-.3017-.75427-.60342-1.20682-.90512l-.15086-.15086A9.64117,9.64117,0,0,0,363.73258.3017h-.15086A16.62352,16.62352,0,0,0,360.86636,0H45.58057A11.39648,11.39648,0,0,0,34.26648,11.31408V500.68592A11.39647,11.39647,0,0,0,45.58057,512H466.7662ZM372.18044,41.485l69.99645,81.31054H372.18044ZM56.89466,22.32644H349.55227V134.10957a11.39647,11.39647,0,0,0,11.31409,11.31408h94.73657V488.9192H56.89466Z" transform="translate(-34.26648)"></path><path class="cls-1" d="M147.25648,269.426a57.62115,57.62115,0,0,0-57.6264,57.62642,56.56663,56.56663,0,0,0,13.426,36.80848v83.57335a11.4668,11.4668,0,0,0,6.185,10.10727,11.08625,11.08625,0,0,0,11.76665-.90514l26.39953-18.85681L173.656,456.6364a11.57,11.57,0,0,0,6.63758,2.112,12.182,12.182,0,0,0,5.129-1.20681,11.4667,11.4667,0,0,0,6.185-10.10727V363.86092a57.50484,57.50484,0,0,0-44.35119-94.4349Zm0,22.62817a34.99825,34.99825,0,1,1-24.891,59.58755l-.15086-.15086a34.99032,34.99032,0,0,1,25.04185-59.43669ZM153.89406,414.548a11.3218,11.3218,0,0,0-13.27519,0l-15.08545,10.86154v-44.9546a57.26355,57.26355,0,0,0,21.57219,4.2239,56.68719,56.68719,0,0,0,21.57219-4.2239v44.9546Z" transform="translate(-34.26648)"></path><path class="cls-1" d="M105.16807,90.51264h42.08838a11.31408,11.31408,0,1,0,0-22.62816H105.16807a11.31408,11.31408,0,0,0,0,22.62816Z" transform="translate(-34.26648)"></path><path class="cls-1" d="M267.78919,116.1579H105.16807a11.31409,11.31409,0,0,0,0,22.62817H267.78919a11.31409,11.31409,0,1,0,0-22.62817Z" transform="translate(-34.26648)"></path><path class="cls-1" d="M267.78919,164.58219H105.16807a11.31408,11.31408,0,0,0,0,22.62816H267.78919a11.31408,11.31408,0,1,0,0-22.62816Z" transform="translate(-34.26648)"></path></g></g></svg>