<svg xmlns="http://www.w3.org/2000/svg" xmlns:xlink="http://www.w3.org/1999/xlink" id="&#x421;&#x43B;&#x43E;&#x439;_1" data-name="&#x421;&#x43B;&#x43E;&#x439; 1" viewBox="0 0 1000 417.06593"><defs><style>
      .cls-1 {
        fill: url(#Безымянный_градиент_152);
      }

      .cls-2 {
        fill: url(#Безымянный_градиент_168);
      }

      .cls-3 {
        fill: url(#Безымянный_градиент_106);
      }

      .cls-4 {
        fill: url(#Безымянный_градиент_171);
      }

      .cls-5 {
        fill: url(#Безымянный_градиент_162);
      }

      .cls-6 {
        fill: url(#Безымянный_градиент_175);
      }

      .cls-7 {
        fill: url(#Безымянный_градиент_146);
      }
    </style><linearGradient id="&#x411;&#x435;&#x437;&#x44B;&#x43C;&#x44F;&#x43D;&#x43D;&#x44B;&#x439;_&#x433;&#x440;&#x430;&#x434;&#x438;&#x435;&#x43D;&#x442;_152" data-name="&#x411;&#x435;&#x437;&#x44B;&#x43C;&#x44F;&#x43D;&#x43D;&#x44B;&#x439; &#x433;&#x440;&#x430;&#x434;&#x438;&#x435;&#x43D;&#x442; 152" y1="280.42851" x2="227.89784" y2="280.42851" gradientUnits="userSpaceOnUse"><stop offset="0" stop-color="#2c6ac6"></stop><stop offset="0" stop-color="#0063c0"></stop><stop offset="1" stop-color="#0063c0"></stop></linearGradient><linearGradient id="&#x411;&#x435;&#x437;&#x44B;&#x43C;&#x44F;&#x43D;&#x43D;&#x44B;&#x439;_&#x433;&#x440;&#x430;&#x434;&#x438;&#x435;&#x43D;&#x442;_168" data-name="&#x411;&#x435;&#x437;&#x44B;&#x43C;&#x44F;&#x43D;&#x43D;&#x44B;&#x439; &#x433;&#x440;&#x430;&#x434;&#x438;&#x435;&#x43D;&#x442; 168" x1="312.62333" y1="221.18716" x2="359.37736" y2="221.18716" xlink:href="#&#x411;&#x435;&#x437;&#x44B;&#x43C;&#x44F;&#x43D;&#x43D;&#x44B;&#x439;_&#x433;&#x440;&#x430;&#x434;&#x438;&#x435;&#x43D;&#x442;_152"></linearGradient><linearGradient id="&#x411;&#x435;&#x437;&#x44B;&#x43C;&#x44F;&#x43D;&#x43D;&#x44B;&#x439;_&#x433;&#x440;&#x430;&#x434;&#x438;&#x435;&#x43D;&#x442;_106" data-name="&#x411;&#x435;&#x437;&#x44B;&#x43C;&#x44F;&#x43D;&#x43D;&#x44B;&#x439; &#x433;&#x440;&#x430;&#x434;&#x438;&#x435;&#x43D;&#x442; 106" x1="31.01967" y1="263.46703" x2="990.4877" y2="263.46703" gradientUnits="userSpaceOnUse"><stop offset="0" stop-color="#2c6ac6"></stop><stop offset="1" stop-color="#2c3b86"></stop></linearGradient><linearGradient id="&#x411;&#x435;&#x437;&#x44B;&#x43C;&#x44F;&#x43D;&#x43D;&#x44B;&#x439;_&#x433;&#x440;&#x430;&#x434;&#x438;&#x435;&#x43D;&#x442;_171" data-name="&#x411;&#x435;&#x437;&#x44B;&#x43C;&#x44F;&#x43D;&#x43D;&#x44B;&#x439; &#x433;&#x440;&#x430;&#x434;&#x438;&#x435;&#x43D;&#x442; 171" x1="475.99473" y1="192.32231" x2="511.37546" y2="192.32231" gradientUnits="userSpaceOnUse"><stop offset="0" stop-color="#2c6ac6"></stop><stop offset="0" stop-color="#0053ac"></stop><stop offset="1" stop-color="#0053ac"></stop></linearGradient><linearGradient id="&#x411;&#x435;&#x437;&#x44B;&#x43C;&#x44F;&#x43D;&#x43D;&#x44B;&#x439;_&#x433;&#x440;&#x430;&#x434;&#x438;&#x435;&#x43D;&#x442;_162" data-name="&#x411;&#x435;&#x437;&#x44B;&#x43C;&#x44F;&#x43D;&#x43D;&#x44B;&#x439; &#x433;&#x440;&#x430;&#x434;&#x438;&#x435;&#x43D;&#x442; 162" x1="252.30008" y1="199.71973" x2="379.28469" y2="199.71973" xlink:href="#&#x411;&#x435;&#x437;&#x44B;&#x43C;&#x44F;&#x43D;&#x43D;&#x44B;&#x439;_&#x433;&#x440;&#x430;&#x434;&#x438;&#x435;&#x43D;&#x442;_152"></linearGradient><linearGradient id="&#x411;&#x435;&#x437;&#x44B;&#x43C;&#x44F;&#x43D;&#x43D;&#x44B;&#x439;_&#x433;&#x440;&#x430;&#x434;&#x438;&#x435;&#x43D;&#x442;_175" data-name="&#x411;&#x435;&#x437;&#x44B;&#x43C;&#x44F;&#x43D;&#x43D;&#x44B;&#x439; &#x433;&#x440;&#x430;&#x434;&#x438;&#x435;&#x43D;&#x442; 175" x1="712.96012" y1="269.87687" x2="783.78608" y2="269.87687" gradientUnits="userSpaceOnUse"><stop offset="0" stop-color="#2c6ac6"></stop><stop offset="0" stop-color="#0d489d"></stop><stop offset="1" stop-color="#0d489d"></stop></linearGradient><linearGradient id="&#x411;&#x435;&#x437;&#x44B;&#x43C;&#x44F;&#x43D;&#x43D;&#x44B;&#x439;_&#x433;&#x440;&#x430;&#x434;&#x438;&#x435;&#x43D;&#x442;_146" data-name="&#x411;&#x435;&#x437;&#x44B;&#x43C;&#x44F;&#x43D;&#x43D;&#x44B;&#x439; &#x433;&#x440;&#x430;&#x434;&#x438;&#x435;&#x43D;&#x442; 146" x1="807.31449" y1="258.74194" x2="1000" y2="258.74194" gradientUnits="userSpaceOnUse"><stop offset="0" stop-color="#2c6ac6"></stop><stop offset="0" stop-color="#174195"></stop><stop offset="1" stop-color="#174195"></stop></linearGradient></defs><title>лого</title><g><path class="cls-1" d="M37.47922,316.84985l73.57024-161.25133h75.49818l18.83244,161.25133h22.51776L213.0875,405.25849H173.34139l2.11577-43.37313H52.28956L39.74611,405.25849H0l14.81034-88.40864Zm49.33828,0h57.24865l-6.23934-113.7978h-3.02252Z" transform="translate(0 -54.93407)"></path><g><path class="cls-2" d="M359.37736,220.06019q0-19.72841-27.207-19.7284H319.62693l-7.0036,41.71074h14.2231Q359.373,242.04253,359.37736,220.06019Z" transform="translate(0 -54.93407)"></path><path class="cls-3" d="M736.389,235.49662q-19.36569,32.18982-34.27966,51.97867l-42.04323,56.04612-3.07865,18.36395H598.60964l34.4567-206.28684h58.5289l-13.56679,80.40329q-3.0182,18.43953-10.12111,46.387,18.34884-29.46955,33.8781-50.44583l42.38434-56.89242,3.25136-19.45206h58.53322l-22.16828,132.138L990.4877,78.48546C882.837,52.99214,644.30849,17.219,379.28469,160.35224a71.0681,71.0681,0,0,1,13.5649,7.10751,55.73963,55.73963,0,0,1,18.5928,20.85537,59.38094,59.38094,0,0,1,6.87407,28.036q0,29.01617-18.87778,49.41817-18.87346,20.402-54.05989,20.402H305.20521L292.489,361.88536h-59.9063l19.71734-118.04443C155.20035,319.85131,81.88945,406.57221,31.01967,472L582.3431,425.05814c46.8582-3.98972,91.81194-26.33827,129.2855-64.27411l1.82592-1.84832,12.75287-76.09782Q729.52352,262.73383,736.389,235.49662ZM706.21127,87.89413q3.789,21.46419,24.24491,21.45987,21.06264,0,33.33406-21.45987h26.59815q-19.79964,46.6979-63.624,46.69789-42.31308,0-46.39564-46.69789ZM520.81,361.88536l-5.75573-42.16412H459.82858l-19.25776,42.16412H389.45141l95.48134-206.28684h64.72074l32.03,206.28684Z" transform="translate(0 -54.93407)"></path><polygon class="cls-4" points="475.995 222.17 511.375 222.17 503.171 162.475 475.995 222.17"></polygon><path class="cls-5" d="M379.28469,160.35224a50.9302,50.9302,0,0,0-9.104-2.71136q-10.95878-2.04668-34.98348-2.04236H267.03944l-14.73936,88.24241a896.37049,896.37049,0,0,1,115.02785-76.92524Q373.31535,163.5692,379.28469,160.35224Z" transform="translate(0 -54.93407)"></path><polygon class="cls-6" points="713.455 304.002 712.96 306.951 771.347 306.951 783.786 232.802 713.455 304.002"></polygon></g><path class="cls-7" d="M807.31449,361.88536,841.7712,155.59852h85.235q23.27122,0,38.08372,4.15812A48.50743,48.50743,0,0,1,1000,206.8302q0,18.89289-11.93895,32.11641-11.94326,13.22568-32.03868,17.75513,34.00332,11.94327,34.00332,44.88439a61.25034,61.25034,0,0,1-16.24819,42.16412q-16.24388,18.13511-54.02535,18.13511Zm67.38056-45.64h30.83832q14.36559,0,19.80612-6.045,5.44053-6.04289,5.44485-13.148,0-8.76313-5.976-14.13243-5.9781-5.35632-17.781-5.36281H881.1546Zm13.679-81.91023h23.61882q28.31019,0,28.31235-18.73961,0-16.47055-22.41844-16.47272H894.25506Z" transform="translate(0 -54.93407)"></path></g></svg>