<svg xmlns="http://www.w3.org/2000/svg" id="svg4050" viewBox="0 0 28 28.00602"><defs><style>
      .cls-1 {
        fill: #2c6ac6;
      }
    </style></defs><title>развитие</title><g id="layer1"><path id="rect4745" class="cls-1" d="M13.5,1.99805a.5.5,0,0,0-.49414.42578l-.4707,3.17187a10.98522,10.98522,0,0,0-1.43946.59571L8.52148,4.28125a.5.5,0,0,0-.65234.04883L4.332,7.86719a.5.5,0,0,0-.04883.65039l1.90821,2.57226A10.98782,10.98782,0,0,0,5.5957,12.5332l-3.168.46875A.50006.50006,0,0,0,2,13.49805v5a.5.5,0,0,0,.42578.49414l3.17383.4707a10.98562,10.98562,0,0,0,.5957,1.4375L4.2832,23.47656a.50006.50006,0,0,0,.04883.65235L7.86914,27.666a.50005.50005,0,0,0,.65234.04687l2.57032-1.90625a11.00247,11.00247,0,0,0,1.44531.5957L13.002,29.543v.00391l.00391.02343a.50006.50006,0,0,0,.56228.42889l.008-.00115h4.84766a.5.5,0,0,0,.571-.41724q.00384-.02463.0052-.04956l.46484-3.13281a10.98522,10.98522,0,0,0,1.43946-.59571l2.57422,1.91016a.5.5,0,0,0,.65234-.04883L27.668,24.127a.5.5,0,0,0,.04883-.65039l-1.90821-2.57422a10.96238,10.96238,0,0,0,.59571-1.4414l3.168-.47071A.5.5,0,0,0,30,18.49805v-5a.50006.50006,0,0,0-.42578-.4961l-3.17383-.4707a10.98562,10.98562,0,0,0-.5957-1.4375L27.7168,8.51758a.5.5,0,0,0-.04883-.65039L24.13086,4.33008a.5.5,0,0,0-.65234-.05078L20.9082,6.18555a11.00253,11.00253,0,0,0-1.44531-.59571l-.46875-3.168A.5.5,0,0,0,18.5,1.99805Zm.43164,1h4.13672l.44727,3.01758a.5.5,0,0,0,.35156.40625,10.00073,10.00073,0,0,1,1.8789.77539.50006.50006,0,0,0,.53516-.03907l2.44727-1.8164,2.92773,2.92578L24.834,10.72266a.5.5,0,0,0-.0371.53515,10.00031,10.00031,0,0,1,.77539,1.8711.5.5,0,0,0,.40429.35156L29,13.92773v4.13868l-3.01758.44531a.5.5,0,0,0-.40625.35156,9.99808,9.99808,0,0,1-.77539,1.87891.5.5,0,0,0,.03711.53515l1.81836,2.44922-2.92773,2.92578L21.27539,24.832a.5.5,0,0,0-.53516-.03906A10.00518,10.00518,0,0,1,19,25.52148V21.18555a5.98537,5.98537,0,0,0-.27344-10.52344A.5.5,0,0,0,18,11.10547v4.60937l-2,1.19922-2-1.19922V11.09961a.5.5,0,0,0-.49986-.50024q-.00788,0-.01576.00024a.5.5,0,0,0-.21094.05469A5.99193,5.99193,0,0,0,13,21.18555v4.33984a9.99517,9.99517,0,0,1-1.74609-.72851.5.5,0,0,0-.53516.03906l-2.44727,1.8164L5.34375,23.72656,7.166,21.27148a.50006.50006,0,0,0,.03711-.53515,9.99967,9.99967,0,0,1-.7754-1.8711.5.5,0,0,0-.40429-.35156L3,18.06641V13.92969l3.01758-.44727a.5.5,0,0,0,.40625-.35156A9.99808,9.99808,0,0,1,7.19922,11.252a.5.5,0,0,0-.03711-.53515L5.34375,8.26758,8.27148,5.3418l2.45313,1.82031a.5.5,0,0,0,.53516.03906,10.02737,10.02737,0,0,1,1.873-.77734.5.5,0,0,0,.34961-.4043ZM13,12.2168v3.78125a.50006.50006,0,0,0,.24219.42773l2.5,1.5a.5.5,0,0,0,.51562,0l2.5-1.5A.50006.50006,0,0,0,19,15.99805V12.22266a4.87949,4.87949,0,0,1,2,3.77539,5,5,0,0,1-10,0A4.88167,4.88167,0,0,1,13,12.2168Zm1,9.42968a5.86455,5.86455,0,0,0,4,0v7.35157H14Z" transform="translate(-2 -1.99805)"></path></g></svg>