<svg xmlns="http://www.w3.org/2000/svg" id="Livello_1" data-name="Livello 1" viewBox="0 0 128.48713 119.46809"><defs><style>
      .cls-1 {
        fill: #2c6ac6;
      }
    </style></defs><title>такси</title><g><path class="cls-1" d="M26.102,79.81561H37.68358c2.262-.00383,4.09474-2.49622,4.09679-5.57124V58.49984q-.0105-.28483-.0431-.56694a3.00291,3.00291,0,0,0,.41842.05671H53.73715a2.95424,2.95424,0,0,0,.41688-.05671c-.01293.1896-.04172.3721-.04172.56694V74.24416c.00206,3.075,1.83483,5.56741,4.09679,5.57124H69.79071c2.262-.00378,4.09471-2.49623,4.09664-5.57124V58.49984c0-.19484-.02864-.37734-.04157-.56694a2.95236,2.95236,0,0,0,.41673.05671H85.84412a3.00081,3.00081,0,0,0,.41827-.05671q-.03249.28173-.04295.56694V74.24416c.00251,3.07485,1.8351,5.56691,4.09694,5.57124h11.58129c2.262-.00374,4.09488-2.49615,4.09695-5.57124V58.49984c-.00273-3.07441-1.83542-5.56576-4.09695-5.56935H90.31638a3.003,3.003,0,0,0-.417.05838q.03158-.28171.04157-.56673V36.67593c-.00258-3.07433-1.83517-5.56572-4.09664-5.56935H74.263c-2.26144.0037-4.094,2.495-4.09664,5.56935V52.42214c0,.19484.02864.37733.04172.56673a2.95831,2.95831,0,0,0-.417-.05838H58.20941a2.95831,2.95831,0,0,0-.417.05838c.01308-.18961.04172-.37189.04172-.56673V36.67593c-.00266-3.07437-1.8353-5.56574-4.09679-5.56935H42.15584c-2.26151.00354-4.09418,2.49495-4.09679,5.56935V52.42214q.00992.28467.04172.56673a2.98261,2.98261,0,0,0-.41688-.05838H26.10228c-2.26149.0036-4.09413,2.495-4.09679,5.56935V74.24416C22.00734,77.31917,23.84,79.81171,26.102,79.81561ZM90.88983,59.2792H101.3247V73.46669H90.88983ZM74.83626,37.45508H85.27113V51.64069H74.83626ZM58.7827,59.2792H69.21757V73.46669H58.7827ZM42.729,37.45508H53.16385V51.64069H42.729ZM26.67542,59.2792H37.11029V73.46669H26.67542Z" transform="translate(-0.36236 -8.44681)"></path><path class="cls-1" d="M21.42712,101.34043H103.493c8.3355,0,14.63115-3.01236,18.71119-8.95571,4.24249-6.18009,5.852-15.14385,4.783-26.6447l-.12578-1.36053C125.34111,47.84134,121.77943,9.111,103.81185,8.44681H25.51148c-17.15925,0-21.22457,32.01464-23.17964,47.40037L2.26731,56.36C.58907,69.55472-.313,84.27807,5.7103,93.44414,9.15329,98.684,14.44166,101.34043,21.42712,101.34043ZM7.44737,57.45988l.06592-.51462C9.23253,43.4045,12.80875,15.22914,25.51165,15.22914h78.2258c13.36468.49383,16.66857,36.42555,17.91341,49.9511l.12613,1.36814c.88168,9.49335-.296,16.67048-3.49715,21.33512-3.04333,4.42946-8.01646,6.67549-14.78669,6.67549h-82.066c-5.44927,0-9.28171-1.79937-11.71568-5.50452C5.047,81.95646,6.05166,68.44029,7.44737,57.45988Z" transform="translate(-0.36236 -8.44681)"></path><path class="cls-1" d="M126.249,119.99574H2.96286c-1.43622,0-2.6005,1.77276-2.6005,3.95958s1.16428,3.95957,2.6005,3.95957H126.249c1.43622,0,2.60051-1.77276,2.60051-3.95957S127.6852,119.99574,126.249,119.99574Z" transform="translate(-0.36236 -8.44681)"></path></g></svg>