<svg xmlns="http://www.w3.org/2000/svg" id="Capa_1" data-name="Capa 1" viewBox="0 0 467.27798 792"><defs><style>
      .cls-1 {
        fill: #2c6ac6;
      }
    </style></defs><title>телефон</title><path class="cls-1" d="M557.75,792s71.889,0,71.889-71.997V71.997C629.639,0,557.75,0,557.75,0H234.25s-71.889,0-71.889,71.997V720.003C162.361,792,234.25,792,234.25,792ZM396,762.022a35.944,35.944,0,1,1,35.945-35.944A35.95786,35.95786,0,0,1,396,762.022ZM306.139,43.888a7.90125,7.90125,0,0,1,7.944-7.944h163.8a7.977,7.977,0,0,1,7.979,7.944v2.121a7.87845,7.87845,0,0,1-7.943,7.944H314.083a7.97019,7.97019,0,0,1-7.944-7.944ZM198.306,89.861H593.695V664.97205H198.306Z" transform="translate(-162.36099)"></path></svg>